<svg width="189" height="189" viewBox="0 0 189 189" fill="none" xmlns="http://www.w3.org/2000/svg">
<circle cx="94.5" cy="94.5" r="94.5" fill="#C99F76"/>
<path d="M94.5 123.136V108.818C94.5 99.2727 99.25 99.2727 108.75 94.5C118.25 89.7273 123 80.9359 123 70.6364C123 63.0415 119.997 55.7578 114.653 50.3874C109.308 45.017 102.059 42 94.5 42C86.9413 42 79.6922 45.017 74.3475 50.3874C69.0027 55.7578 66 63.0415 66 70.6364M94.5 147C95.7598 147 96.968 146.497 97.8588 145.602C98.7496 144.707 99.25 143.493 99.25 142.227C99.25 140.961 98.7496 139.748 97.8588 138.852C96.968 137.957 95.7598 137.455 94.5 137.455C93.2402 137.455 92.032 137.957 91.1412 138.852C90.2504 139.748 89.75 140.961 89.75 142.227C89.75 143.493 90.2504 144.707 91.1412 145.602C92.032 146.497 93.2402 147 94.5 147Z" stroke="black" stroke-width="7"/>
</svg>
