<svg width="189" height="189" viewBox="0 0 189 189" fill="none" xmlns="http://www.w3.org/2000/svg">
<circle cx="94.5" cy="94.5" r="94.5" fill="#C99F76"/>
<path d="M65.6857 48.7143C63.2306 48.7143 60.876 49.6896 59.1399 51.4256C57.4039 53.1617 56.4286 55.5163 56.4286 57.9714V132.029C56.4286 134.484 57.4039 136.838 59.1399 138.574C60.876 140.31 63.2306 141.286 65.6857 141.286H124.314C126.769 141.286 129.124 140.31 130.86 138.574C132.596 136.838 133.571 134.484 133.571 132.029V85.658C133.571 82.8461 132.453 80.15 130.466 78.1597L103.733 51.4259C101.997 49.6898 99.6421 48.7144 97.187 48.7143H65.6857ZM62.2143 57.9714C62.2143 57.0507 62.58 56.1678 63.2311 55.5168C63.8821 54.8657 64.7651 54.5 65.6857 54.5H95V79.5714C95 81.6174 95.8128 83.5795 97.2595 85.0262C98.7062 86.473 100.668 87.2857 102.714 87.2857H127.786V132.029C127.786 132.949 127.42 133.832 126.769 134.483C126.118 135.134 125.235 135.5 124.314 135.5H65.6857C64.7651 135.5 63.8821 135.134 63.2311 134.483C62.58 133.832 62.2143 132.949 62.2143 132.029V57.9714ZM125.626 81.5H102.714C102.203 81.5 101.712 81.2968 101.351 80.9351C100.989 80.5735 100.786 80.0829 100.786 79.5714V56.66L125.626 81.5Z" fill="black"/>
</svg>
