<svg width="189" height="189" viewBox="0 0 189 189" fill="none" xmlns="http://www.w3.org/2000/svg">
<circle cx="94.5" cy="94.5" r="94.5" fill="#C99F76"/>
<path d="M86.5084 58.3648L77.9652 68.1457C75.4072 68.9496 73.0331 70.4234 71.0269 72.4523L66.5797 76.9887C64.8744 78.7305 62.6508 79.6875 60.3603 79.6875H57.05V104.188C60.4606 104.302 63.7041 105.891 66.1283 108.666L72.0802 115.48L73.2505 116.82L77.7645 121.988C78.8011 123.175 80.5064 123.175 81.543 121.988C81.8272 121.663 82.0445 121.28 82.1616 120.878C82.6297 119.404 83.7164 118.294 85.0539 117.95C86.3914 117.605 87.7958 118.064 88.7655 119.194L90.5711 121.223C92.5105 123.443 95.6536 123.443 97.5762 121.223C98.4791 120.189 98.9639 118.868 99.0141 117.509C99.0809 115.825 99.9503 114.332 101.288 113.605C102.625 112.877 104.18 113.03 105.367 114.007C106.939 115.289 109.129 115.117 110.533 113.509C112.105 111.71 112.105 108.8 110.533 107.02L97.8605 92.5117L91.8752 98.8281C87.3109 103.652 80.3058 103.728 75.658 99.0004C70.3581 93.6027 70.2411 84.1855 75.3905 78.6156L87.1103 65.9445C91.6912 61.0062 97.7434 58.25 104.046 58.25C110.082 58.25 115.917 60.7957 120.414 65.3703L125.446 70.5H145.325C146.796 70.5 148 71.8781 148 73.5625V113.375C148 116.763 145.609 119.5 142.65 119.5H137.3C135.327 119.5 133.588 118.275 132.669 116.438H118.475C117.906 117.72 117.154 118.945 116.218 120.017C113.359 123.29 109.396 124.572 105.685 123.864C105.083 125.261 104.264 126.563 103.244 127.73C98.6797 132.956 91.5408 133.473 86.4583 129.281C82.2619 133.262 76.0091 133.013 72.0802 128.496L67.5828 123.328L66.4125 121.988L60.4606 115.174C59.5411 114.121 58.3373 113.509 57.05 113.394C57.05 116.763 54.6425 119.5 51.7 119.5H46.35C43.3908 119.5 41 116.763 41 113.375V73.5625C41 71.8781 42.2037 70.5 43.675 70.5H60.3603C60.6947 70.5 61.0123 70.366 61.2464 70.1172L65.6769 65.6C70.3414 60.8723 76.3434 58.25 82.5795 58.25H84.3016C85.0372 58.25 85.7895 58.2883 86.5084 58.3648ZM131.95 107.25V79.6875H123.925C122.939 79.6875 121.986 79.2664 121.267 78.5199L115.098 72.2418C112.055 69.141 108.126 67.4375 104.046 67.4375C99.7998 67.4375 95.7205 69.2941 92.6275 72.6246L80.9077 85.2957C79.1856 87.1715 79.2191 90.3297 80.9912 92.1289C82.5461 93.7176 84.9034 93.6793 86.4248 92.0715L98.4456 79.3621C100.067 77.6395 102.609 77.7543 104.113 79.6301C105.618 81.5059 105.518 84.3961 103.879 86.1188L103.745 86.2719L116.184 100.512C117.856 102.427 118.943 104.781 119.428 107.231H131.95V107.25ZM51.7 110.312C51.7 109.5 51.4182 108.721 50.9165 108.147C50.4149 107.573 49.7345 107.25 49.025 107.25C48.3155 107.25 47.6351 107.573 47.1335 108.147C46.6318 108.721 46.35 109.5 46.35 110.312C46.35 111.125 46.6318 111.904 47.1335 112.478C47.6351 113.052 48.3155 113.375 49.025 113.375C49.7345 113.375 50.4149 113.052 50.9165 112.478C51.4182 111.904 51.7 111.125 51.7 110.312ZM139.975 113.375C140.684 113.375 141.365 113.052 141.867 112.478C142.368 111.904 142.65 111.125 142.65 110.312C142.65 109.5 142.368 108.721 141.867 108.147C141.365 107.573 140.684 107.25 139.975 107.25C139.266 107.25 138.585 107.573 138.083 108.147C137.582 108.721 137.3 109.5 137.3 110.312C137.3 111.125 137.582 111.904 138.083 112.478C138.585 113.052 139.266 113.375 139.975 113.375Z" fill="black"/>
</svg>
