<svg width="189" height="189" viewBox="0 0 189 189" fill="none" xmlns="http://www.w3.org/2000/svg">
<circle cx="94.5" cy="94.5" r="94.5" fill="#C99F76"/>
<g filter="url(#filter0_d_1_16)">
<path d="M45.5281 93.8C45.5281 84.6267 46.9415 77.5067 49.7681 72.44C52.5948 67.3733 57.6615 64.84 64.9681 64.84C72.2748 64.84 77.3415 67.3733 80.1681 72.44C82.9948 77.5067 84.4081 84.6267 84.4081 93.8C84.4081 103.133 82.9948 110.36 80.1681 115.48C77.3415 120.6 72.2748 123.16 64.9681 123.16C57.6081 123.16 52.5148 120.6 49.6881 115.48C46.9148 110.36 45.5281 103.133 45.5281 93.8ZM78.8881 93.8C78.8881 88.84 78.5415 84.6533 77.8481 81.24C77.1548 77.8267 75.7948 75.08 73.7681 73C71.7415 70.92 68.8081 69.88 64.9681 69.88C61.1281 69.88 58.1948 70.92 56.1681 73C54.1415 75.08 52.7815 77.8267 52.0881 81.24C51.3948 84.6533 51.0481 88.84 51.0481 93.8C51.0481 98.92 51.3948 103.213 52.0881 106.68C52.7815 110.093 54.1415 112.84 56.1681 114.92C58.1948 117 61.1281 118.04 64.9681 118.04C68.8081 118.04 71.7415 117 73.7681 114.92C75.7948 112.84 77.1548 110.093 77.8481 106.68C78.5415 103.213 78.8881 98.92 78.8881 93.8Z" fill="#1B1A19"/>
<path d="M93.065 77.64C93.065 74.2267 94.105 71.48 96.185 69.4C98.3183 67.2667 101.012 66.2 104.265 66.2C107.572 66.2 110.265 67.2667 112.345 69.4C114.478 71.48 115.545 74.2267 115.545 77.64C115.545 81.1067 114.478 83.9067 112.345 86.04C110.265 88.12 107.572 89.16 104.265 89.16C101.012 89.16 98.3183 88.12 96.185 86.04C94.105 83.9067 93.065 81.1067 93.065 77.64ZM137.865 67L105.065 123H99.385L132.265 67H137.865ZM104.265 69.8C102.238 69.8 100.612 70.4933 99.385 71.88C98.2117 73.2133 97.625 75.1333 97.625 77.64C97.625 80.1467 98.2117 82.0933 99.385 83.48C100.612 84.8667 102.238 85.56 104.265 85.56C106.292 85.56 107.918 84.8667 109.145 83.48C110.372 82.0933 110.985 80.1467 110.985 77.64C110.985 75.1867 110.372 73.2667 109.145 71.88C107.918 70.4933 106.292 69.8 104.265 69.8ZM121.865 112.36C121.865 108.893 122.905 106.12 124.985 104.04C127.118 101.907 129.812 100.84 133.065 100.84C136.318 100.84 138.985 101.907 141.065 104.04C143.198 106.12 144.265 108.893 144.265 112.36C144.265 115.827 143.198 118.627 141.065 120.76C138.985 122.84 136.318 123.88 133.065 123.88C129.812 123.88 127.118 122.84 124.985 120.76C122.905 118.627 121.865 115.827 121.865 112.36ZM133.065 104.52C131.038 104.52 129.412 105.213 128.185 106.6C126.958 107.987 126.345 109.907 126.345 112.36C126.345 114.813 126.958 116.733 128.185 118.12C129.412 119.507 131.038 120.2 133.065 120.2C135.092 120.2 136.692 119.533 137.865 118.2C139.092 116.813 139.705 114.867 139.705 112.36C139.705 109.853 139.092 107.933 137.865 106.6C136.692 105.213 135.092 104.52 133.065 104.52Z" fill="#1B1A19"/>
</g>
<defs>
<filter id="filter0_d_1_16" x="45.5281" y="64.84" width="107.737" height="67.04" filterUnits="userSpaceOnUse" color-interpolation-filters="sRGB">
<feFlood flood-opacity="0" result="BackgroundImageFix"/>
<feColorMatrix in="SourceAlpha" type="matrix" values="0 0 0 0 0 0 0 0 0 0 0 0 0 0 0 0 0 0 127 0" result="hardAlpha"/>
<feOffset dx="5" dy="4"/>
<feGaussianBlur stdDeviation="2"/>
<feComposite in2="hardAlpha" operator="out"/>
<feColorMatrix type="matrix" values="0 0 0 0 0 0 0 0 0 0 0 0 0 0 0 0 0 0 0.25 0"/>
<feBlend mode="normal" in2="BackgroundImageFix" result="effect1_dropShadow_1_16"/>
<feBlend mode="normal" in="SourceGraphic" in2="effect1_dropShadow_1_16" result="shape"/>
</filter>
</defs>
</svg>
