<svg width="189" height="189" viewBox="0 0 189 189" fill="none" xmlns="http://www.w3.org/2000/svg">
<circle cx="94.5" cy="94.5" r="94.5" fill="#C99F76"/>
<path d="M141.875 50.5036C140.586 49.6695 139.111 49.1648 137.581 49.0341C136.051 48.9033 134.512 49.1504 133.1 49.7536L86.825 67.9786C85.7294 68.4245 84.5578 68.6537 83.375 68.6536H53.75C51.2636 68.6536 48.879 69.6413 47.1209 71.3995C45.3627 73.1576 44.375 75.5422 44.375 78.0286V78.7786H35V101.279H44.375V102.254C44.4337 104.701 45.4473 107.028 47.1992 108.738C48.951 110.448 51.3021 111.404 53.75 111.404L65 135.254C65.7618 136.86 66.9611 138.218 68.4602 139.174C69.9593 140.129 71.6975 140.642 73.475 140.654H78.2C80.6734 140.634 83.0387 139.637 84.7807 137.881C86.5227 136.125 87.5001 133.752 87.5 131.279V112.304L133.1 130.529C134.222 130.975 135.418 131.204 136.625 131.204C138.498 131.173 140.322 130.6 141.875 129.554C143.109 128.721 144.126 127.606 144.843 126.302C145.561 124.998 145.957 123.541 146 122.054V58.2286C145.993 56.7025 145.614 55.2011 144.895 53.8549C144.176 52.5086 143.139 51.3582 141.875 50.5036ZM78.125 78.0286V102.254H53.75V78.0286H78.125ZM78.125 131.279H73.4L64.175 111.404H78.125V131.279ZM90.275 103.379C89.3845 102.924 88.456 102.547 87.5 102.254V77.5036C88.4468 77.3082 89.3752 77.0322 90.275 76.6786L136.625 58.2286V121.829L90.275 103.379ZM146.225 80.6536V99.4036C148.711 99.4036 151.096 98.4159 152.854 96.6577C154.612 94.8996 155.6 92.515 155.6 90.0286C155.6 87.5422 154.612 85.1576 152.854 83.3995C151.096 81.6413 148.711 80.6536 146.225 80.6536Z" fill="black"/>
</svg>
