<svg width="189" height="189" viewBox="0 0 189 189" fill="none" xmlns="http://www.w3.org/2000/svg">
<circle cx="94.5" cy="94.5" r="94.5" fill="#C99F76"/>
<path d="M58 95C54.6083 95 51.7048 93.7924 49.2896 91.3771C46.8743 88.9618 45.6666 86.0583 45.6666 82.6667C45.6666 79.275 46.8743 76.3715 49.2896 73.9562C51.7048 71.541 54.6083 70.3333 58 70.3333C61.3916 70.3333 64.2951 71.541 66.7104 73.9562C69.1257 76.3715 70.3333 79.275 70.3333 82.6667C70.3333 86.0583 69.1257 88.9618 66.7104 91.3771C64.2951 93.7924 61.3916 95 58 95ZM33.3333 119.667V111.033C33.3333 109.286 33.7835 107.681 34.6838 106.217C35.5841 104.754 36.7784 103.635 38.2666 102.862C41.4528 101.269 44.6903 100.075 47.9791 99.2797C51.268 98.4842 54.6083 98.0854 58 98.0833C61.3916 98.0813 64.7319 98.4801 68.0208 99.2797C71.3097 100.079 74.5472 101.274 77.7333 102.862C79.2236 103.633 80.4189 104.752 81.3192 106.217C82.2196 107.683 82.6687 109.288 82.6666 111.033V119.667H33.3333ZM39.5 113.5H76.5V111.033C76.5 110.468 76.3592 109.954 76.0776 109.492C75.796 109.029 75.4229 108.669 74.9583 108.412C72.1833 107.025 69.3826 105.985 66.5562 105.292C63.7298 104.599 60.8778 104.252 58 104.25C55.1222 104.248 52.2701 104.595 49.4437 105.292C46.6173 105.989 43.8166 107.029 41.0416 108.412C40.5791 108.669 40.2061 109.029 39.9224 109.492C39.6387 109.954 39.4979 110.468 39.5 111.033V113.5ZM58 88.8333C59.6958 88.8333 61.1481 88.23 62.3567 87.0234C63.5654 85.8168 64.1687 84.3646 64.1666 82.6667C64.1646 80.9688 63.5613 79.5176 62.3567 78.313C61.1522 77.1084 59.6999 76.5041 58 76.5C56.3 76.4959 54.8488 77.1002 53.6463 78.313C52.4438 79.5258 51.8395 80.977 51.8333 82.6667C51.8271 84.3563 52.4315 85.8086 53.6463 87.0234C54.8611 88.2382 56.3124 88.8416 58 88.8333Z" fill="black"/>
<path d="M132 95C128.608 95 125.705 93.7924 123.29 91.3771C120.874 88.9618 119.667 86.0583 119.667 82.6667C119.667 79.275 120.874 76.3715 123.29 73.9562C125.705 71.541 128.608 70.3333 132 70.3333C135.392 70.3333 138.295 71.541 140.71 73.9562C143.126 76.3715 144.333 79.275 144.333 82.6667C144.333 86.0583 143.126 88.9618 140.71 91.3771C138.295 93.7924 135.392 95 132 95ZM107.333 119.667V111.033C107.333 109.286 107.783 107.681 108.684 106.217C109.584 104.754 110.778 103.635 112.267 102.862C115.453 101.269 118.69 100.075 121.979 99.2797C125.268 98.4842 128.608 98.0854 132 98.0833C135.392 98.0813 138.732 98.4801 142.021 99.2797C145.31 100.079 148.547 101.274 151.733 102.862C153.224 103.633 154.419 104.752 155.319 106.217C156.22 107.683 156.669 109.288 156.667 111.033V119.667H107.333ZM113.5 113.5H150.5V111.033C150.5 110.468 150.359 109.954 150.078 109.492C149.796 109.029 149.423 108.669 148.958 108.412C146.183 107.025 143.383 105.985 140.556 105.292C137.73 104.599 134.878 104.252 132 104.25C129.122 104.248 126.27 104.595 123.444 105.292C120.617 105.989 117.817 107.029 115.042 108.412C114.579 108.669 114.206 109.029 113.922 109.492C113.639 109.954 113.498 110.468 113.5 111.033V113.5ZM132 88.8333C133.696 88.8333 135.148 88.23 136.357 87.0234C137.565 85.8168 138.169 84.3646 138.167 82.6667C138.165 80.9688 137.561 79.5176 136.357 78.313C135.152 77.1084 133.7 76.5041 132 76.5C130.3 76.4959 128.849 77.1002 127.646 78.313C126.444 79.5258 125.839 80.977 125.833 82.6667C125.827 84.3563 126.431 85.8086 127.646 87.0234C128.861 88.2382 130.312 88.8416 132 88.8333Z" fill="black"/>
<g clip-path="url(#clip0_2_14)">
<path d="M111.8 50.4V57.6L104.6 50.4H90.2C88.927 50.4 87.7061 49.8943 86.8059 48.9941C85.9057 48.0939 85.4 46.873 85.4 45.6V28.8C85.4 26.16 87.56 24 90.2 24H114.2C115.473 24 116.694 24.5057 117.594 25.4059C118.494 26.3061 119 27.527 119 28.8V45.6C119 46.873 118.494 48.0939 117.594 48.9941C116.694 49.8943 115.473 50.4 114.2 50.4H111.8ZM104.6 55.2V60C104.6 61.273 104.094 62.4939 103.194 63.3941C102.294 64.2943 101.073 64.8 99.8 64.8H85.4L78.2 72V64.8H75.8C74.527 64.8 73.3061 64.2943 72.4059 63.3941C71.5057 62.4939 71 61.273 71 60V43.2C71 40.56 73.16 38.4 75.8 38.4H80.6V45.6C80.6 48.1461 81.6114 50.5879 83.4118 52.3882C85.2121 54.1886 87.6539 55.2 90.2 55.2H104.6Z" fill="black"/>
</g>
<defs>
<clipPath id="clip0_2_14">
<rect width="48" height="48" fill="white" transform="translate(71 24)"/>
</clipPath>
</defs>
</svg>
