<svg width="189" height="189" viewBox="0 0 189 189" fill="none" xmlns="http://www.w3.org/2000/svg">
<circle cx="94.5" cy="94.5" r="94.5" fill="#C99F76"/>
<path d="M126.066 89.0674L99.6662 62.9143C98.4285 61.6886 96.7501 61 95 61C93.2499 61 91.5715 61.6886 90.3338 62.9143L63.9338 89.0674C63.3185 89.6733 62.8307 90.3942 62.4987 91.1883C62.1668 91.9823 61.9972 92.8338 62 93.6933V125.077C62 126.117 62.4172 127.115 63.1599 127.851C63.9025 128.587 64.9098 129 65.96 129H87.08C88.1303 129 89.1375 128.587 89.8801 127.851C90.6228 127.115 91.04 126.117 91.04 125.077V108.078H98.96V125.077C98.96 126.117 99.3772 127.115 100.12 127.851C100.862 128.587 101.87 129 102.92 129H124.04C125.09 129 126.097 128.587 126.84 127.851C127.583 127.115 128 126.117 128 125.077V93.6933C128.003 92.8338 127.833 91.9823 127.501 91.1883C127.169 90.3942 126.682 89.6733 126.066 89.0674ZM120.08 121.154H106.88V104.155C106.88 103.114 106.463 102.116 105.72 101.381C104.977 100.645 103.97 100.232 102.92 100.232H87.08C86.0298 100.232 85.0225 100.645 84.2799 101.381C83.5372 102.116 83.12 103.114 83.12 104.155V121.154H69.92V94.2327L95 69.3872L120.08 94.2327V121.154Z" fill="black"/>
<path fill-rule="evenodd" clip-rule="evenodd" d="M113.729 44.3124L117.572 40.4694C123.221 34.8224 126.043 32 129.55 32C133.06 32 135.882 34.8224 141.529 40.4694C147.178 46.1184 150 48.9408 150 52.4499C150 55.957 147.178 58.7815 141.531 64.4284L137.688 68.2714C134.441 71.516 132.82 73.1393 130.714 73.742C128.608 74.3468 126.371 73.8302 121.9 72.797L119.321 72.2027C115.558 71.3354 113.677 70.9007 112.387 69.6134C111.1 68.3239 110.665 66.4423 109.798 62.6791L109.202 60.1003C108.171 55.6273 107.654 53.3928 108.257 51.2865C108.862 49.1802 110.485 47.5569 113.729 44.3124ZM133.889 54.7936C132.478 56.2069 130.449 56.1964 128.843 55.3501C128.54 55.5596 128.174 55.6565 127.807 55.624C127.44 55.5914 127.097 55.4315 126.836 55.172C126.575 54.9125 126.413 54.5697 126.378 54.2033C126.344 53.8369 126.438 53.4699 126.646 53.166C126.268 52.452 126.067 51.6687 126.075 50.8875C126.079 50.4698 126.249 50.0707 126.547 49.7781C126.845 49.4855 127.247 49.3233 127.665 49.3272C128.082 49.3311 128.481 49.5008 128.774 49.7989C129.067 50.097 129.229 50.4992 129.225 50.9169C129.243 51.4032 129.452 51.8627 129.807 52.1958C130.619 53.0085 131.434 52.7964 131.663 52.5675C131.892 52.3365 132.104 51.5238 131.291 50.7111C129.645 49.0647 129.099 46.2213 130.92 44.4006C132.333 42.9873 134.361 42.9978 135.968 43.8441C136.271 43.6359 136.637 43.5401 137.002 43.5732C137.368 43.6063 137.711 43.7662 137.972 44.0254C138.232 44.2845 138.394 44.6266 138.428 44.9923C138.463 45.358 138.369 45.7244 138.162 46.0281C138.679 46.9705 138.852 48.0636 138.65 49.1193C138.566 49.5287 138.322 49.8879 137.973 50.1179C137.624 50.3479 137.198 50.4298 136.789 50.3457C136.38 50.2616 136.021 50.0183 135.791 49.6694C135.561 49.3205 135.479 48.8945 135.563 48.4851C135.64 48.1134 135.519 47.5128 135.004 46.9983C134.189 46.1856 133.377 46.3977 133.148 46.6266C132.919 46.8576 132.707 47.6703 133.519 48.483C135.166 50.1294 135.712 52.9728 133.889 54.7936ZM125.416 57.1582C125.026 56.7682 124.562 56.4589 124.053 56.2479C123.543 56.0369 122.997 55.9284 122.445 55.9285C121.894 55.9286 121.348 56.0373 120.838 56.2485C120.329 56.4597 119.866 56.7691 119.476 57.1592C119.086 57.5493 118.777 58.0124 118.566 58.522C118.355 59.0316 118.246 59.5778 118.246 60.1294C118.246 60.6809 118.355 61.2271 118.566 61.7366C118.777 62.2462 119.087 62.7092 119.477 63.0991C120.265 63.8866 121.333 64.329 122.447 64.3288C123.561 64.3286 124.629 63.8859 125.417 63.0981C126.204 62.3102 126.646 61.2418 126.646 60.1279C126.646 59.014 126.203 57.9457 125.416 57.1582Z" fill="black"/>
</svg>
