<?xml version="1.0" encoding="utf-8"?>
<!-- Generator: Adobe Illustrator 28.1.0, SVG Export Plug-In . SVG Version: 6.00 Build 0)  -->
<svg version="1.1" id="Layer_1" xmlns="http://www.w3.org/2000/svg" xmlns:xlink="http://www.w3.org/1999/xlink" x="0px" y="0px"
	 viewBox="0 0 1080 1080" style="enable-background:new 0 0 1080 1080;" xml:space="preserve">
<style type="text/css">
	.st0{fill:#FFFFFF;}
	.st1{fill:#131314;}
	.st2{fill:#AF8451;}
</style>
<g>
	<g>
		<g>
			<g>
				<g>
					<path class="st0" d="M540.03,5C244.56,5,5,244.56,5,540.03C5,835.5,244.56,1075,540.03,1075C835.5,1075,1075,835.5,1075,540.03
						C1075,244.56,835.5,5,540.03,5z M807.2,836.44c0,4.85-3.91,8.76-8.76,8.76H679.26c-4.85,0-8.76-3.91-8.76-8.76v-225
						c0-4.85-3.97-8.76-8.76-8.76H517.66c-11.22,0-21.81-5.36-28.49-14.37l-56.35-75.88l-5.04-6.81l-4.92-6.55l-2.08-2.84
						c-3.53-4.85-11.22-2.27-11.22,3.72v336.5c0,4.85-3.91,8.76-8.76,8.76H281.62c-4.86,0-8.76-3.91-8.76-8.76V243.56
						c0-4.85,3.91-8.76,8.76-8.76H400.8c4.85,0,8.76,3.91,8.76,8.76v224.31c0,4.85,3.91,8.76,8.76,8.76h243.41
						c4.79,0,8.76-3.91,8.76-8.76V243.56c0-4.85,3.91-8.76,8.76-8.76h119.18c4.85,0,8.76,3.91,8.76,8.76V836.44z"/>
				</g>
			</g>
		</g>
	</g>
</g>
</svg>
