<?xml version="1.0" encoding="utf-8"?>
<!-- Generator: Adobe Illustrator 28.1.0, SVG Export Plug-In . SVG Version: 6.00 Build 0)  -->
<svg version="1.1" id="Layer_1" xmlns="http://www.w3.org/2000/svg" xmlns:xlink="http://www.w3.org/1999/xlink" x="0px" y="0px"
	 viewBox="0 0 1080 505.09" style="enable-background:new 0 0 1080 505.09;" xml:space="preserve">
<style type="text/css">
	.st0{fill:#FFFFFF;}
	.st1{fill:#131314;}
	.st2{fill:#AF8451;}
</style>
<g>
	<g>
		<path class="st0" d="M69.74,409.73v34.24H26.71v-34.24c0-0.46-0.37-0.83-0.83-0.83H4.8c-0.46,0-0.83,0.37-0.83,0.83v91.87
			c0,0.46,0.37,0.83,0.83,0.83h20.97c0.46,0,0.83-0.37,0.83-0.83v-53.78c0-0.98,1.24-1.39,1.84-0.62l0.02,0.02l1.15,1.54l0.83,1.13
			c0.04,0.06,0.09,0.11,0.13,0.15l7.25,9.77c1.1,1.48,2.83,2.35,4.67,2.35h27.25v39.43c0,0.46,0.37,0.83,0.83,0.83h21.06
			c0.46,0,0.83-0.37,0.83-0.83v-91.87c0-0.46-0.37-0.83-0.83-0.83H70.57C70.11,408.91,69.74,409.28,69.74,409.73z"/>
		<path class="st0" d="M206.61,455.27c0,26.04-17.28,49.16-51.29,49.16c-31.75,0-49.82-21.66-49.82-49.03
			c0-25.77,19.13-48.49,50.88-48.49C189.07,406.91,206.61,429.76,206.61,455.27z M129.41,455.14c0,17.67,8.9,31.62,27.24,31.62
			c18.73,0,26.04-15.94,26.04-31.22c0-16.48-8.1-30.96-26.97-30.96C137.52,424.58,129.41,439.33,129.41,455.14z"/>
		<path class="st0" d="M305.07,466.56c0-16.08,0.13-32.95,0.66-43.31h-0.13c-4.65,17.27-13.55,44.78-24.58,79.19h-19.93
			c-8.5-30.16-18.47-61.38-23.39-79.05h-0.13c0.67,10.76,1.6,28.96,1.6,44.91v34.15h-20.46V408.9h32.82
			c9.3,28.96,17.94,54.34,20.73,67.23h0.13c3.99-14.88,12.49-39.46,21.52-67.23H327v93.54h-21.92V466.56z"/>
		<path class="st0" d="M419.61,462.98H367.4v21.26h58.06l-2.66,18.2h-78.12V408.9h77.73v18.2H367.4v17.67h52.22V462.98z"/>
		<path class="st0" d="M543.85,458.46h-56.6v32.68h62.45l-1.86,11.29h-74.01V408.1h72.95v11.16h-59.52v27.9h56.6V458.46z"/>
		<path class="st0" d="M572.7,474.93c3.45,11.16,11.56,18.87,30.02,18.87c18.6,0,25.78-7.17,25.78-15.94
			c0-9.3-5.18-15.01-29.63-19.13c-28.3-4.78-35.08-13.68-35.08-26.57c0-16.61,15.68-26.04,36.27-26.04
			c30.69,0,37.87,16.08,38.93,25.64h-13.42c-2-6.51-5.98-15.01-25.91-15.01c-13.55,0-22.32,4.65-22.32,14.08
			c0,7.71,3.85,12.62,25.37,16.21c34.01,5.85,39.46,16.34,39.46,29.5c0,15.01-11.96,27.9-40.39,27.9c-26.3,0-39.59-12.09-42.78-29.5
			H572.7z"/>
		<path class="st0" d="M683.52,419.4h-36.01V408.1h85.3v11.29h-35.87v83.04h-13.42V419.4z"/>
		<path class="st0" d="M747.83,473.87l-12.22,28.57h-13.82l40.52-94.33h16.21l42.25,94.33h-14.62l-12.62-28.57H747.83z
			 M789.15,462.44c-11.56-26.04-17.01-38.4-19.13-44.77h-0.13c-1.99,6.11-8.37,22.32-17.94,44.77H789.15z"/>
		<path class="st0" d="M844.56,419.4h-36.01V408.1h85.3v11.29h-35.87v83.04h-13.42V419.4z"/>
		<path class="st0" d="M977.7,458.46h-56.6v32.68h62.45l-1.86,11.29h-74V408.1h72.94v11.16H921.1v27.9h56.6V458.46z"/>
		<path class="st0" d="M1006.54,474.93c3.45,11.16,11.56,18.87,30.02,18.87c18.6,0,25.78-7.17,25.78-15.94
			c0-9.3-5.18-15.01-29.63-19.13c-28.3-4.78-35.08-13.68-35.08-26.57c0-16.61,15.68-26.04,36.27-26.04
			c30.69,0,37.87,16.08,38.93,25.64h-13.42c-2-6.51-5.98-15.01-25.91-15.01c-13.55,0-22.32,4.65-22.32,14.08
			c0,7.71,3.85,12.62,25.37,16.21c34.01,5.85,39.46,16.34,39.46,29.5c0,15.01-11.96,27.9-40.39,27.9c-26.3,0-39.59-12.09-42.78-29.5
			H1006.54z"/>
	</g>
	<g>
		<path class="st0" d="M536.62,0.66c-88.24,0-159.79,71.55-159.79,159.79c0,88.24,71.55,159.77,159.79,159.77
			c88.24,0,159.77-71.53,159.77-159.77C696.39,72.2,624.86,0.66,536.62,0.66z M616.41,248.97c0,1.45-1.17,2.62-2.62,2.62H578.2
			c-1.45,0-2.62-1.17-2.62-2.62v-67.2c0-1.45-1.19-2.62-2.62-2.62h-43.03c-3.35,0-6.51-1.6-8.51-4.29l-16.83-22.66l-1.51-2.03
			l-1.47-1.96l-0.62-0.85c-1.05-1.45-3.35-0.68-3.35,1.11v100.49c0,1.45-1.17,2.62-2.62,2.62h-35.59c-1.45,0-2.62-1.17-2.62-2.62
			V71.9c0-1.45,1.17-2.62,2.62-2.62h35.59c1.45,0,2.62,1.17,2.62,2.62v66.99c0,1.45,1.17,2.62,2.62,2.62h72.69
			c1.43,0,2.62-1.17,2.62-2.62V71.9c0-1.45,1.17-2.62,2.62-2.62h35.59c1.45,0,2.62,1.17,2.62,2.62V248.97z"/>
	</g>
</g>
</svg>
