<?xml version="1.0" encoding="utf-8"?>
<!-- Generator: Adobe Illustrator 28.1.0, SVG Export Plug-In . SVG Version: 6.00 Build 0)  -->
<svg version="1.1" id="Layer_1" xmlns="http://www.w3.org/2000/svg" xmlns:xlink="http://www.w3.org/1999/xlink" x="0px" y="0px"
	 viewBox="0 0 1080 303.75" style="enable-background:new 0 0 1080 303.75;" xml:space="preserve">
<style type="text/css">
	.st0{fill:#FFFFFF;}
	.st1{fill:#131314;}
	.st2{fill:#AF8451;}
</style>
<g>
	<g>
		<path class="st0" d="M394.51,22.82h25.62v39.56h48.55V22.82h25.62V128.3h-25.62V82.9h-48.55v45.4h-25.62V22.82z"/>
		<path class="st0" d="M623.02,75.11c0,29.37-19.48,55.44-57.84,55.44c-35.81,0-56.19-24.42-56.19-55.29
			c0-29.07,21.58-54.69,57.39-54.69C603.24,20.57,623.02,46.34,623.02,75.11z M535.96,74.96c0,19.93,10.04,35.66,30.72,35.66
			c21.13,0,29.37-17.98,29.37-35.21c0-18.58-9.14-34.91-30.42-34.91C545.1,40.5,535.96,57.13,535.96,74.96z"/>
		<path class="st0" d="M734.06,87.85c0-18.13,0.15-37.16,0.75-48.85h-0.15c-5.24,19.48-15.28,50.5-27.72,89.3h-22.48
			c-9.59-34.01-20.83-69.23-26.37-89.15h-0.15c0.75,12.14,1.8,32.66,1.8,50.65v38.51h-23.07V22.82h37.01
			c10.49,32.66,20.23,61.28,23.38,75.82h0.15c4.49-16.78,14.08-44.5,24.27-75.82h37.31V128.3h-24.72V87.85z"/>
		<path class="st0" d="M863.24,83.8h-58.89v23.97h65.48l-3,20.53h-88.1V22.82h87.65v20.53h-62.03v19.93h58.89V83.8z"/>
		<path class="st0" d="M474.67,231.36h-63.83v36.86h70.42l-2.1,12.74H395.7V174.57h82.26v12.59h-67.13v31.47h63.83V231.36z"/>
		<path class="st0" d="M507.19,249.94c3.9,12.59,13.03,21.28,33.86,21.28c20.98,0,29.07-8.09,29.07-17.98
			c0-10.49-5.84-16.93-33.41-21.58c-31.92-5.39-39.56-15.43-39.56-29.97c0-18.73,17.68-29.37,40.91-29.37
			c34.61,0,42.7,18.13,43.9,28.92h-15.13c-2.25-7.34-6.74-16.93-29.22-16.93c-15.28,0-25.17,5.24-25.17,15.88
			c0,8.69,4.34,14.24,28.62,18.28c38.36,6.59,44.5,18.43,44.5,33.26c0,16.93-13.48,31.47-45.55,31.47
			c-29.67,0-44.65-13.63-48.25-33.26H507.19z"/>
		<path class="st0" d="M632.17,187.31h-40.61v-12.74h96.19v12.74H647.3v93.65h-15.13V187.31z"/>
		<path class="st0" d="M704.7,248.74l-13.79,32.21h-15.58l45.7-106.39h18.28l47.65,106.39h-16.48l-14.24-32.21H704.7z M751.3,235.86
			c-13.04-29.37-19.18-43.3-21.58-50.49h-0.15c-2.25,6.89-9.44,25.17-20.23,50.49H751.3z"/>
		<path class="st0" d="M813.79,187.31h-40.61v-12.74h96.19v12.74h-40.46v93.65h-15.13V187.31z"/>
		<path class="st0" d="M963.94,231.36h-63.83v36.86h70.42l-2.1,12.74h-83.46V174.57h82.26v12.59h-67.13v31.47h63.83V231.36z"/>
		<path class="st0" d="M996.46,249.94c3.9,12.59,13.03,21.28,33.86,21.28c20.98,0,29.07-8.09,29.07-17.98
			c0-10.49-5.84-16.93-33.41-21.58c-31.92-5.39-39.56-15.43-39.56-29.97c0-18.73,17.68-29.37,40.91-29.37
			c34.61,0,42.7,18.13,43.9,28.92h-15.13c-2.25-7.34-6.74-16.93-29.22-16.93c-15.28,0-25.17,5.24-25.17,15.88
			c0,8.69,4.34,14.24,28.62,18.28c38.36,6.59,44.5,18.43,44.5,33.26c0,16.93-13.48,31.47-45.55,31.47
			c-29.67,0-44.65-13.63-48.25-33.26H996.46z"/>
	</g>
	<g>
		<path class="st0" d="M147.08,9.95C68.69,9.95,5.17,73.51,5.17,151.89c0,78.38,63.52,141.9,141.91,141.9s141.94-63.52,141.94-141.9
			C289.02,73.51,225.46,9.95,147.08,9.95z M217.96,230.52c0,1.31-1.04,2.35-2.32,2.35h-31.62c-1.28,0-2.32-1.04-2.32-2.35v-59.69
			c0-1.28-1.04-2.32-2.35-2.32h-38.19c-3.01,0-5.81-1.42-7.57-3.8l-14.9-20.12c-0.04,0-0.04,0-0.07-0.03l-1.31-1.8l-1.87-2.49
			c-0.93-1.28-2.97-0.62-2.97,0.97v89.27c0,1.31-1.04,2.35-2.32,2.35H78.54c-1.28,0-2.32-1.04-2.32-2.35V73.23
			c0-1.28,1.04-2.32,2.32-2.32h31.62c1.28,0,2.32,1.04,2.32,2.32v59.51c0,1.28,1.04,2.32,2.32,2.32h64.56
			c1.31,0,2.35-1.04,2.35-2.32V73.23c0-1.28,1.04-2.32,2.32-2.32h31.62c1.28,0,2.32,1.04,2.32,2.32V230.52z"/>
	</g>
</g>
</svg>
